<svg width="312" height="309" viewBox="0 0 312 309" fill="none" xmlns="http://www.w3.org/2000/svg">
<path d="M88.5504 9.61591H150.721V56.8655C150.721 56.8655 171.117 90.7769 183.835 107.443C185.809 145.04 185.126 228.183 160.257 291.589H80.6834C55.8151 228.183 55.6806 145.04 57.6543 107.443L88.5504 56.8655V9.61591Z" fill="#A6A6A6"/>
<path d="M150.721 56.8655V9.61591H88.5504V56.8655M150.721 56.8655H88.5504M150.721 56.8655C150.721 56.8655 171.117 90.7769 183.835 107.443M88.5504 56.8655L57.6543 107.443M57.6543 107.443C57.6543 107.443 134.558 107.443 183.835 107.443M57.6543 107.443C55.6806 145.04 55.8151 228.183 80.6834 291.589H160.257C185.126 228.183 185.809 145.04 183.835 107.443" stroke="black" stroke-width="17.8088" stroke-linecap="round" stroke-linejoin="round"/>
<path d="M14.4967 116.458C10.946 99.5243 13.5681 63.2562 52.463 53.6544" stroke="black" stroke-width="17.8088" stroke-linecap="round" stroke-linejoin="round"/>
<path d="M86.9218 131.31C85.6279 158.219 87.3099 222.604 104.389 264.876" stroke="#E0E0E0" stroke-width="17.8088" stroke-linecap="round" stroke-linejoin="round"/>
<path d="M296.059 107.782H136.168C133.738 165.694 153.745 160.755 216.113 193.822C278.482 160.755 298.489 165.694 296.059 107.782Z" fill="white"/>
<path d="M296.059 107.782H136.168C133.738 165.694 153.745 160.755 216.113 193.822C278.482 160.755 298.489 165.694 296.059 107.782Z" fill="url(#paint0_linear)"/>
<path d="M168.15 283.882C163.642 283.882 159.987 287.537 159.987 292.045C159.987 296.552 163.642 300.207 168.15 300.207V283.882ZM264.077 300.207C268.585 300.207 272.239 296.552 272.239 292.045C272.239 287.537 268.585 283.882 264.077 283.882V300.207ZM136.168 107.782V99.6201C131.793 99.6201 128.196 103.069 128.013 107.44L136.168 107.782ZM296.059 107.782L304.214 107.44C304.031 103.069 300.434 99.6201 296.059 99.6201V107.782ZM168.15 300.207H216.113V283.882H168.15V300.207ZM216.113 300.207H264.077V283.882H216.113V300.207ZM207.951 193.822V292.045H224.276V193.822H207.951ZM136.168 115.945H296.059V99.6201H136.168V115.945ZM128.013 107.44C127.392 122.239 128.147 133.88 131.059 143.396C134.076 153.257 139.284 160.442 146.699 166.457C153.791 172.212 162.897 176.871 173.437 181.93C184.2 187.097 196.889 192.868 212.29 201.033L219.937 186.61C204.154 178.242 190.954 172.231 180.501 167.213C169.824 162.089 162.386 158.164 156.984 153.781C151.904 149.659 148.669 145.154 146.669 138.619C144.564 131.741 143.729 122.282 144.323 108.125L128.013 107.44ZM287.904 108.125C288.498 122.282 287.663 131.741 285.558 138.619C283.558 145.154 280.322 149.659 275.242 153.781C269.841 158.164 262.403 162.089 251.726 167.213C241.273 172.231 228.073 178.242 212.29 186.61L219.937 201.033C235.338 192.868 248.027 187.097 258.79 181.93C269.33 176.871 278.436 172.212 285.528 166.457C292.942 160.442 298.151 153.257 301.168 143.396C304.08 133.88 304.835 122.239 304.214 107.44L287.904 108.125Z" fill="black"/>
<defs>
<linearGradient id="paint0_linear" x1="216.113" y1="107.782" x2="216.113" y2="292.045" gradientUnits="userSpaceOnUse">
<stop offset="0.0679235" stop-color="#FFCA3A" stop-opacity="0.33"/>
<stop offset="0.229898" stop-color="#FFCA3A"/>
</linearGradient>
</defs>
</svg>
