<svg width="464" height="766" viewBox="0 0 464 766" fill="none" xmlns="http://www.w3.org/2000/svg">
<path d="M209.049 20V140H283.549H358.999L358.049 20H283.549H209.049Z" fill="#A6A6A6"/>
<path d="M209.049 140L130.999 271H283.549H440.499L358.999 140H283.549H209.049Z" fill="#A6A6A6"/>
<path d="M283.549 271H130.999C125.166 392.667 127.799 656.4 196.999 746H283.499H379.499C448.699 656.4 446.332 392.667 440.499 271H283.549Z" fill="#A6A6A6"/>
<path d="M119.549 129.5C77.3828 141.333 -0.550509 191.5 25.0495 297.5M209.049 140V20H283.549H358.049L358.999 140M209.049 140L130.999 271M209.049 140H283.549H358.999M130.999 271H283.549H440.499M130.999 271C125.166 392.667 127.799 656.4 196.999 746H283.499H379.499C448.699 656.4 446.332 392.667 440.499 271M358.999 140L440.499 271" stroke="black" stroke-width="40" stroke-linecap="round" stroke-linejoin="round"/>
</svg>
